<svg width="20" height="20" viewBox="0 0 20 20" fill="none" xmlns="http://www.w3.org/2000/svg">
<path d="M5.93451 13.0052C5.64162 13.2981 5.64162 13.773 5.93451 14.0659C6.22741 14.3587 6.70228 14.3587 6.99517 14.0659L5.93451 13.0052ZM14.2859 6.46446C14.2859 6.05024 13.9501 5.71445 13.5359 5.71446L6.78591 5.71445C6.3717 5.71445 6.03591 6.05024 6.03591 6.46445C6.03591 6.87867 6.3717 7.21445 6.78591 7.21445H12.7859V13.2145C12.7859 13.6287 13.1217 13.9645 13.5359 13.9645C13.9501 13.9645 14.2859 13.6287 14.2859 13.2145L14.2859 6.46446ZM6.99517 14.0659L14.0662 6.99478L13.0056 5.93412L5.93451 13.0052L6.99517 14.0659Z" fill="#5D37F3"/>
</svg>
